<?xml version="1.0" standalone="no"?>
<!DOCTYPE svg PUBLIC "-//W3C//DTD SVG 20010904//EN"
 "http://www.w3.org/TR/2001/REC-SVG-20010904/DTD/svg10.dtd">
<svg version="1.0" xmlns="http://www.w3.org/2000/svg"
 width="512.000000pt" height="512.000000pt" viewBox="0 0 512.000000 512.000000"
 preserveAspectRatio="xMidYMid meet">
<metadata>
Created by potrace 1.11, written by Peter Selinger 2001-2013
</metadata>
<g transform="translate(0.000000,512.000000) scale(0.100000,-0.100000)"
fill="#000000" stroke="none">
<path d="M864 4931 c-3 -3 -15 -6 -27 -6 -51 -2 -189 -62 -214 -93 -7 -9 -13
-13 -13 -8 0 11 -83 -74 -110 -114 -37 -51 -69 -118 -76 -156 -3 -19 -9 -34
-13 -34 -3 0 -6 -19 -6 -43 1 -23 -2 -54 -6 -69 -4 -14 -4 -29 -1 -33 3 -3 7
-16 8 -29 2 -42 28 -146 37 -146 4 0 6 -4 3 -9 -4 -5 -3 -11 1 -13 5 -1 17
-21 28 -43 11 -22 28 -47 37 -56 10 -9 15 -19 11 -23 -3 -3 2 -6 12 -6 10 0
16 -3 12 -6 -20 -20 179 -143 258 -160 42 -8 215 -13 215 -5 0 3 15 7 33 8 17
1 43 6 57 11 14 5 27 9 30 8 3 0 19 9 37 22 17 12 35 22 41 22 5 0 29 -23 53
-51 24 -28 62 -70 84 -94 22 -23 65 -71 95 -106 30 -34 69 -77 85 -95 33 -36
130 -144 167 -186 72 -82 129 -146 181 -201 72 -76 83 -95 62 -103 -8 -3 -12
-10 -9 -15 3 -5 1 -9 -4 -9 -5 0 -22 -19 -38 -42 -16 -24 -31 -45 -34 -48 -3
-3 -19 -32 -35 -65 -17 -33 -34 -63 -40 -67 -5 -4 -6 -10 -2 -14 4 -4 2 -12
-3 -19 -5 -6 -11 -20 -13 -31 -2 -10 -7 -26 -10 -34 -4 -8 -8 -26 -9 -40 -2
-14 -6 -29 -9 -35 -6 -10 -11 -73 -13 -150 0 -22 -5 -43 -11 -47 -7 -5 -6 -8
1 -8 6 0 11 -12 11 -27 2 -42 10 -106 15 -123 3 -8 13 -42 23 -75 9 -33 30
-86 46 -117 31 -62 28 -72 -24 -99 -11 -7 -26 -16 -31 -21 -42 -34 -107 -78
-115 -78 -6 0 -11 -4 -11 -8 0 -5 -26 -26 -57 -48 -32 -21 -60 -41 -63 -44 -3
-3 -25 -19 -50 -35 -25 -17 -51 -36 -58 -43 -8 -6 -35 -26 -60 -44 -26 -18
-52 -37 -59 -43 -34 -28 -43 -35 -49 -35 -3 0 -23 -13 -43 -28 -54 -43 -56
-43 -82 -21 -52 46 -89 70 -97 65 -5 -3 -16 4 -25 15 -9 10 -23 19 -31 19 -8
0 -27 5 -43 12 -15 6 -35 13 -43 15 -30 8 -216 7 -235 -1 -11 -5 -29 -11 -39
-13 -11 -2 -25 -8 -31 -13 -7 -5 -15 -7 -18 -3 -4 3 -7 0 -7 -7 0 -7 -3 -10
-6 -7 -4 4 -20 -3 -35 -14 -16 -11 -29 -18 -29 -15 0 7 -14 -6 -94 -84 -31
-29 -56 -60 -56 -67 0 -7 -4 -13 -10 -13 -5 0 -10 -5 -10 -11 0 -6 -7 -17 -15
-25 -8 -9 -15 -26 -15 -39 0 -13 -4 -25 -9 -27 -5 -2 -12 -19 -15 -39 -3 -20
-8 -43 -12 -52 -9 -26 -10 -128 -1 -134 5 -3 3 -9 -4 -14 -9 -5 -10 -9 -2 -9
6 0 9 -9 6 -20 -3 -11 -1 -20 3 -20 5 0 10 -10 10 -23 4 -47 45 -136 96 -202
70 -91 212 -179 303 -188 17 -2 35 -6 40 -9 6 -3 36 -4 67 -4 37 1 55 -2 50
-9 -3 -5 1 -4 9 2 9 7 33 15 54 19 76 12 235 91 235 117 0 4 7 7 17 7 9 0 14
2 11 5 -3 3 11 23 32 43 21 20 37 40 37 44 -1 4 6 17 17 29 10 12 19 27 21 33
1 6 9 28 19 48 9 21 16 46 16 57 0 11 4 22 9 25 13 9 4 256 -10 256 -9 0 -31
89 -24 100 3 4 31 25 62 46 32 21 63 43 70 49 33 28 43 35 48 35 8 0 119 82
127 94 4 6 8 7 8 3 0 -4 12 4 27 18 15 14 33 25 39 25 7 0 14 7 18 15 3 8 12
15 21 15 8 0 15 5 15 10 0 6 7 10 15 10 8 0 15 4 15 8 0 4 15 16 33 27 17 10
40 27 49 37 9 11 19 18 22 16 3 -2 16 6 28 17 13 10 24 17 25 15 1 -3 8 2 15
11 7 9 25 24 39 33 25 16 27 15 55 -16 17 -18 49 -49 73 -68 24 -19 49 -41 56
-48 8 -6 18 -12 24 -12 6 0 11 -4 11 -8 0 -9 111 -68 123 -64 4 1 7 -2 7 -8 0
-6 3 -9 8 -8 12 2 66 -14 79 -24 7 -5 17 -7 23 -3 5 3 10 2 10 -2 0 -5 10 -10
23 -11 78 -8 104 -11 122 -16 37 -8 40 -8 45 -6 3 1 28 4 55 5 55 3 114 11
160 21 17 3 36 7 43 7 6 0 12 4 12 9 0 4 5 7 12 5 18 -3 37 -21 31 -29 -2 -5
1 -8 6 -8 6 0 10 -3 9 -7 -1 -5 6 -25 15 -46 9 -20 16 -38 15 -40 -1 -1 5 -13
12 -27 8 -14 15 -31 16 -39 2 -8 6 -17 11 -20 8 -6 15 -27 16 -48 0 -7 4 -13
8 -13 4 0 11 -10 15 -22 3 -13 16 -43 27 -68 12 -25 21 -47 22 -50 0 -3 6 -15
13 -27 7 -13 9 -23 5 -23 -4 0 -2 -4 5 -8 20 -14 23 -70 4 -77 -15 -4 -54 -39
-112 -101 -17 -18 -68 -111 -71 -129 0 -2 -8 -26 -18 -52 -22 -62 -28 -217 -9
-240 9 -13 10 -15 0 -9 -9 5 -10 2 -3 -16 17 -42 24 -63 28 -83 2 -10 9 -23
16 -27 6 -4 9 -8 4 -8 -15 0 49 -87 108 -145 77 -75 180 -130 265 -139 9 -1
21 -5 28 -10 7 -4 12 -2 12 4 0 6 5 8 11 4 15 -9 129 -11 129 -2 0 3 12 6 28
6 15 -1 48 9 74 21 26 11 49 21 53 21 11 0 91 56 128 90 44 40 127 160 127
184 0 9 5 16 11 16 5 0 7 4 4 10 -3 5 0 20 6 32 7 13 13 36 14 53 0 17 4 36 9
43 4 7 2 12 -5 12 -8 0 -8 4 -1 12 11 14 4 97 -12 153 -18 62 -31 95 -38 95
-4 0 -7 3 -6 8 3 13 -13 52 -22 52 -5 0 -12 9 -15 20 -8 24 -111 128 -140 141
-11 5 -39 20 -61 33 -59 33 -118 49 -186 50 -21 0 -38 4 -38 9 0 4 -5 5 -11 1
-6 -3 -30 -8 -53 -11 -22 -2 -50 -5 -61 -6 -11 -1 -20 3 -20 8 -1 6 -11 33
-24 60 -13 28 -29 64 -36 80 -7 17 -23 53 -36 80 -12 28 -23 53 -24 58 -2 4
-4 10 -5 15 -1 4 -2 10 -1 15 0 4 -4 7 -10 7 -5 0 -8 4 -4 9 3 5 1 12 -5 16
-5 3 -10 15 -10 26 0 10 -4 19 -10 19 -5 0 -10 8 -10 18 0 10 -4 22 -8 27 -5
6 -16 29 -25 52 -13 34 -14 43 -3 52 7 6 16 8 19 4 4 -3 9 2 13 11 3 9 12 16
19 16 8 0 27 13 43 30 17 16 33 30 36 30 9 0 66 62 66 71 0 5 7 9 15 9 8 0 15
4 15 8 0 5 11 22 25 38 14 16 28 37 31 47 3 9 9 17 13 17 8 0 33 46 37 70 2 8
8 16 13 18 6 2 15 21 21 43 11 39 12 40 48 34 54 -7 68 -11 130 -36 17 -7 21
-6 16 2 -5 8 -3 9 6 4 7 -4 26 -11 44 -16 17 -4 49 -13 71 -19 22 -6 50 -12
63 -14 32 -5 33 -7 37 -73 1 -32 4 -59 5 -60 1 -2 3 -11 4 -20 1 -10 5 -24 9
-30 5 -7 6 -17 2 -22 -3 -5 -1 -12 5 -16 6 -4 8 -11 5 -16 -4 -5 -1 -9 4 -9 6
0 10 -3 9 -7 -3 -15 14 -63 23 -63 5 0 9 -7 9 -15 0 -8 5 -15 12 -15 6 0 8 -3
5 -7 -4 -3 5 -16 18 -29 14 -13 25 -28 25 -34 0 -5 8 -10 17 -10 9 0 14 -3 10
-6 -8 -8 7 -22 58 -55 70 -46 111 -69 131 -72 10 -2 26 -7 35 -11 9 -4 20 -6
25 -5 5 1 11 0 14 -1 31 -12 139 -19 155 -11 6 3 21 6 35 7 42 4 127 30 148
47 6 5 12 6 12 1 0 -5 4 -4 8 1 4 6 28 24 53 40 26 17 67 54 91 83 44 52 106
160 113 198 2 10 4 19 6 19 4 0 10 52 13 115 6 120 -44 275 -111 348 -17 17
-29 32 -26 32 2 0 -13 16 -34 35 -21 19 -44 35 -50 35 -7 0 -13 4 -13 8 0 10
-90 58 -102 55 -4 -2 -8 1 -8 5 0 5 -6 9 -12 9 -7 0 -32 5 -56 11 -93 22 -232
10 -317 -28 -16 -7 -33 -13 -37 -12 -5 1 -8 -2 -8 -7 0 -5 -11 -12 -25 -15
-14 -4 -25 -11 -25 -16 0 -6 -5 -10 -10 -10 -12 0 -120 -104 -120 -115 0 -3
-9 -15 -20 -27 -10 -12 -17 -24 -15 -28 2 -4 -5 -16 -15 -28 -19 -20 -22 -20
-60 -7 -22 8 -44 15 -48 16 -4 1 -11 3 -17 4 -15 5 -68 18 -90 22 -29 7 -38 9
-57 17 -9 4 -22 4 -29 0 -8 -5 -9 -3 -4 6 6 9 4 12 -6 8 -8 -3 -30 0 -49 7
l-35 12 -2 124 c-2 124 -5 161 -16 189 -7 16 -18 67 -19 88 -1 6 -5 12 -10 12
-4 0 -7 3 -6 8 3 14 -16 67 -29 80 -7 8 -11 18 -8 23 4 5 1 9 -5 9 -6 0 -8 4
-5 10 3 6 2 10 -2 10 -5 0 -17 17 -28 38 -11 20 -23 42 -28 47 -62 81 -163
180 -226 222 -29 19 -49 38 -45 42 5 3 11 15 12 26 2 11 8 23 14 26 5 3 9 9 9
13 -1 3 6 23 15 44 10 20 18 39 18 42 1 3 6 12 11 20 5 8 10 22 12 30 1 8 7
16 13 18 5 2 8 7 5 12 -3 5 0 14 7 22 7 7 13 18 13 23 0 12 36 88 45 95 4 3
10 16 13 30 14 51 20 54 89 43 41 -7 69 -7 82 -1 14 7 17 7 11 -2 -5 -8 -2
-10 11 -6 11 3 38 8 61 11 23 3 55 10 70 17 15 6 33 12 40 14 23 4 123 65 123
75 0 5 3 8 8 7 8 -3 102 91 102 103 0 4 6 14 13 21 11 11 50 92 53 108 0 3 4
12 7 20 7 18 16 59 23 115 3 21 8 43 10 47 3 4 1 8 -4 8 -5 0 -8 10 -7 22 6
84 -57 233 -138 323 -39 44 -151 127 -176 131 -3 0 -15 4 -26 8 -11 4 -32 12
-46 17 -29 11 -209 20 -223 11 -5 -3 -21 -7 -35 -8 -40 -5 -55 -9 -71 -19 -8
-5 -24 -11 -34 -12 -11 -2 -27 -10 -36 -18 -9 -8 -22 -15 -28 -15 -7 0 -12 -4
-12 -10 0 -5 -5 -10 -11 -10 -28 0 -158 -155 -174 -207 -3 -13 -11 -23 -16
-23 -6 0 -7 -4 -4 -10 3 -5 3 -16 -2 -22 -4 -7 -8 -17 -10 -23 -22 -110 -23
-183 -2 -266 7 -30 12 -60 11 -66 -2 -7 2 -13 8 -13 6 0 8 -4 5 -10 -3 -5 -1
-10 5 -10 6 0 8 -4 5 -10 -3 -5 -1 -10 4 -10 6 0 11 -5 11 -11 0 -26 109 -159
131 -159 5 0 9 -4 9 -9 0 -5 7 -11 15 -13 12 -2 11 -11 -9 -50 -13 -26 -21
-49 -18 -52 3 -4 0 -6 -7 -6 -8 0 -11 -7 -7 -15 3 -8 2 -15 -2 -15 -6 0 -43
-72 -47 -90 0 -3 -12 -28 -27 -57 -14 -28 -24 -54 -21 -57 4 -3 1 -6 -6 -6 -7
0 -9 -4 -6 -10 3 -5 2 -10 -4 -10 -5 0 -12 -13 -16 -30 -4 -16 -11 -30 -16
-30 -5 0 -8 -3 -8 -7 4 -22 -3 -33 -19 -33 -10 0 -22 3 -26 7 -3 4 -14 8 -24
9 -22 3 -57 12 -57 14 0 5 -73 11 -177 14 -66 1 -118 -1 -118 -6 0 -5 -4 -7
-9 -4 -5 3 -28 0 -52 -7 -24 -8 -46 -14 -49 -14 -3 -1 -25 -7 -50 -14 -25 -7
-48 -12 -52 -11 -5 1 -8 -2 -8 -7 0 -8 -20 -17 -57 -26 -7 -2 -19 -9 -26 -17
-7 -7 -30 -22 -50 -33 -20 -11 -37 -23 -37 -27 0 -4 -7 -5 -15 -2 -8 4 -15 13
-15 21 0 8 -3 12 -8 10 -4 -3 -13 1 -20 9 -7 8 -10 14 -6 14 3 0 -10 16 -30
36 -20 20 -36 40 -36 46 0 5 -4 6 -10 3 -5 -3 -10 -1 -10 5 0 6 -12 23 -27 38
-16 16 -53 57 -83 91 -30 35 -68 78 -85 95 -16 18 -55 61 -85 96 -30 35 -74
83 -97 107 -24 24 -43 46 -43 49 0 2 -19 24 -42 48 -74 74 -118 125 -118 135
0 5 -5 11 -12 13 -8 3 -2 20 18 49 29 43 62 116 70 152 2 10 6 28 9 39 10 29
15 148 6 148 -3 0 -6 12 -5 28 1 15 -1 32 -5 37 -3 6 -6 15 -6 20 -2 22 -19
69 -39 109 -26 51 -97 145 -111 146 -6 0 -16 9 -23 20 -11 18 -76 58 -96 58
-5 0 -12 4 -15 9 -5 8 -92 46 -98 44 -2 -1 -4 -1 -5 0 -4 2 -88 9 -141 12 -26
1 -50 0 -53 -2z"/>
</g>
</svg>
